<svg xmlns="http://www.w3.org/2000/svg" viewBox="0 0 600 740" role="img" aria-label="French-Tips in Babyblau mit feinen Schwüngen">
  <defs>
    <linearGradient id="b1" x1="0" y1="0" x2="1" y2="1"><stop offset="0" stop-color="#eef4fb"/><stop offset="1" stop-color="#dbe7f6"/></linearGradient>
    <linearGradient id="n1" x1="0" y1="0" x2="0" y2="1"><stop offset="0" stop-color="#fdf3ef"/><stop offset="1" stop-color="#f0d8cf"/></linearGradient>
    <linearGradient id="t1" x1="0" y1="0" x2="0" y2="1"><stop offset="0" stop-color="#9cc4ee"/><stop offset="1" stop-color="#6f9fdb"/></linearGradient>
  </defs>
  <rect width="600" height="740" fill="url(#b1)"/>
  <ellipse cx="300" cy="560" rx="190" ry="50" fill="#b9cbe4" opacity="0.4"/>
  <g transform="translate(300 470)">
    <g transform="rotate(-12) translate(-150 0)"><path d="M0 0 C 8 -150 64 -150 72 0 C 72 70 0 70 0 0 Z" fill="url(#n1)" stroke="#dcbcb1" stroke-width="2"/><path d="M2 -118 C 12 -150 60 -150 70 -118 C 60 -150 12 -150 2 -118 Z" fill="url(#t1)"/></g>
    <g transform="translate(-36 -20)"><path d="M0 0 C 9 -170 70 -170 79 0 C 79 76 0 76 0 0 Z" fill="url(#n1)" stroke="#dcbcb1" stroke-width="2"/><path d="M3 -134 C 13 -170 66 -170 76 -134 C 66 -170 13 -170 3 -134 Z" fill="url(#t1)"/><path d="M16 -50 C 44 -84 33 -128 56 -154" fill="none" stroke="#cfe0f6" stroke-width="4.4" stroke-linecap="round"/><path d="M28 -38 C 54 -76 46 -116 66 -146" fill="none" stroke="#fff" stroke-width="2.4" stroke-linecap="round" opacity="0.85"/></g>
    <g transform="rotate(12) translate(90 0)"><path d="M0 0 C 8 -150 64 -150 72 0 C 72 70 0 70 0 0 Z" fill="url(#n1)" stroke="#dcbcb1" stroke-width="2"/><path d="M2 -118 C 12 -150 60 -150 70 -118 C 60 -150 12 -150 2 -118 Z" fill="url(#t1)"/></g>
  </g>
  <g fill="#7f9fc8"><path d="M120 150 l5 12 12 5 -12 5 -5 12 -5 -12 -12 -5 12 -5 z" opacity="0.7"/><circle cx="470" cy="200" r="4" opacity="0.5"/></g>
</svg>
