<?xml version="1.0" encoding="UTF-8"?>
<!DOCTYPE svg PUBLIC "-//W3C//DTD SVG 1.1//EN" "http://www.w3.org/Graphics/SVG/1.1/DTD/svg11.dtd">
<!-- Creator: CorelDRAW X7 -->
<svg xmlns="http://www.w3.org/2000/svg" xml:space="preserve" width="430px" height="118px" version="1.1" style="shape-rendering:geometricPrecision; text-rendering:geometricPrecision; image-rendering:optimizeQuality; fill-rule:evenodd; clip-rule:evenodd"
viewBox="0 0 430 118"
 xmlns:xlink="http://www.w3.org/1999/xlink">
 <defs>
  <style type="text/css">
   <![CDATA[
    .fil0 {fill:none}
    .fil1 {fill:#868C93;fill-rule:nonzero}
    .fil2 {fill:#929CA6;fill-rule:nonzero}
    .fil3 {fill:#003E64;fill-rule:nonzero}
   ]]>
  </style>
 </defs>
 <g id="Ebene_x0020_1">
  <metadata id="CorelCorpID_0Corel-Layer"/>
  <polygon class="fil0" points="0,0 430,0 430,118 0,118 "/>
  <g id="_2405153852272">
   <g>
    <path class="fil1" d="M115 46l18 0 0 5 -13 0 0 6 8 0 0 4 -8 0 0 7 14 0 0 4 -19 0 0 -26zm23 0l5 0 0 21 12 0 0 5 -17 0 0 -26zm20 0l17 0 0 5 -12 0 0 6 7 0 0 4 -7 0 0 7 13 0 0 4 -18 0 0 -26zm32 14l-5 6 0 6 -5 0 0 -26 5 0 0 13 10 -13 6 0 -8 10 9 16 -5 0 -7 -12zm25 12l-5 0 0 -21 -7 0 0 -5 20 0 0 5 -8 0 0 21zm23 -14c3,0 4,-2 4,-4 0,-1 -1,-3 -4,-3l-7 0 0 7 7 0zm-12 -12l12 0c7,0 9,4 9,8 0,3 -2,7 -5,8l5 10 -6 0 -4 -9 -6 0 0 9 -5 0 0 -26zm42 13c0,-4 -2,-8 -6,-8 -5,0 -7,5 -7,8 0,4 2,9 7,9 4,0 6,-5 6,-9zm-18 0c0,-6 3,-13 12,-13 8,0 11,7 11,13 0,7 -3,14 -11,14 -9,0 -12,-7 -12,-14zm37 13l-5 0 0 -21 -7 0 0 -5 20 0 0 5 -8 0 0 21zm11 -26l18 0 0 5 -13 0 0 6 8 0 0 4 -8 0 0 7 14 0 0 4 -19 0 0 -26zm21 13c0,-6 3,-13 11,-13 5,0 8,3 9,6l-4 2c-2,-2 -3,-3 -5,-3 -5,0 -6,4 -6,8 0,4 2,9 6,9 2,0 3,-2 4,-3l5 1c-2,4 -5,7 -9,7 -8,0 -11,-7 -11,-14zm40 2l-11 0 0 11 -5 0 0 -26 5 0 0 11 11 0 0 -11 5 0 0 26 -5 0 0 -11zm26 11l-10 -15c0,0 -1,-1 -1,-2 0,1 0,2 0,2l0 15 -5 0 0 -26 5 0 10 15c0,1 0,2 1,2 0,0 0,-1 0,-2l0 -15 5 0 0 26 -5 0zm10 -26l5 0 0 26 -5 0 0 -26zm20 14l-5 6 0 6 -5 0 0 -26 5 0 0 13 10 -13 6 0 -7 10 9 16 -6 0 -7 -12z"/>
    <path class="fil2" d="M95 22l0 -10 -23 0 -13 0 0 0c3,3 4,9 4,15 0,6 -1,11 -4,14 4,3 6,9 6,16 0,7 -2,13 -6,15l0 0 13 0 23 0 0 -10 -23 0 0 -15 13 0 0 -10 -13 0 0 -15 23 0z"/>
   </g>
   <g>
    <path class="fil3" d="M130 30c0,-2 -1,-4 -5,-4l-6 0 0 8 7 0c4,0 4,-2 4,-4zm0 -11c0,-2 -1,-4 -5,-4l-6 0 0 8 6 0c3,0 5,-2 5,-4zm-5 -7c6,0 8,3 8,7 0,2 -1,4 -3,5 3,1 4,4 4,6 0,4 -2,8 -8,8l-11 0 0 -26 10 0zm14 0l17 0 0 3 -13 0 0 8 8 0 0 3 -8 0 0 8 13 0 0 4 -17 0 0 -26zm22 0l4 0 0 22 13 0 0 4 -17 0 0 -26zm19 20l4 -1c1,2 3,4 6,4 3,0 5,-2 5,-4 0,-3 -3,-4 -6,-5 -4,-2 -8,-3 -8,-8 0,-4 3,-7 9,-7 4,0 7,3 8,6l-4 1c-1,-2 -2,-3 -5,-3 -2,0 -4,1 -4,3 0,2 3,3 6,4 3,2 8,3 8,8 0,5 -4,8 -9,8 -5,0 -8,-2 -10,-6zm23 -7c0,-6 2,-14 10,-14 5,0 8,3 9,6l-3 1c-1,-2 -3,-3 -6,-3 -5,0 -6,6 -6,10 0,4 2,10 6,10 3,0 5,-2 6,-4l3 2c-1,3 -4,5 -9,5 -8,0 -10,-7 -10,-13zm40 1l-12 0 0 12 -4 0 0 -26 4 0 0 11 12 0 0 -11 4 0 0 26 -4 0 0 -12zm26 12l-12 -18c0,0 0,-1 -1,-2 0,1 0,2 0,2l0 18 -3 0 0 -26 3 0 11 17c1,1 1,1 1,2 0,-1 0,-1 0,-2l0 -17 4 0 0 26 -3 0zm9 -26l16 0 0 3 -12 0 0 8 8 0 0 3 -8 0 0 8 13 0 0 4 -17 0 0 -26zm33 11c3,0 4,-1 4,-3 0,-2 -1,-4 -4,-4l-7 0 0 7 7 0zm-11 -11l11 0c6,0 8,4 8,8 0,3 -2,6 -6,7l6 11 -5 0 -5 -11 -5 0 0 11 -4 0 0 -26z"/>
    <path class="fil3" d="M48 31l-9 0 0 -9 9 0c3,0 4,2 4,4l0 2c0,2 -1,3 -4,3zm1 31l-10 0 0 -9 10 0c2,0 4,2 4,4l0 2c0,2 -2,3 -4,3zm-36 -37l5 0 0 35 -5 0 0 -35zm-11 8l5 0 0 19 -5 0 0 -19zm50 6l-24 0 0 -27 -5 0 0 60 5 0 0 -28 24 0 0 -5z"/>
   </g>
   <g>
    <path class="fil1" d="M3 104l0 -8 -1 0 0 8 1 0zm9 0l0 -8 -1 0 0 7 -4 -7 -1 0 0 8 1 0 0 -7 4 7 1 0zm8 -2c0,-1 0,-1 -1,-2 0,0 -1,0 -1,0l-1 -1c-1,0 -1,0 -1,0 -1,0 -1,-1 -1,-1 0,-1 1,-2 2,-2 1,0 1,1 2,1l1 -1c-1,0 -2,0 -3,0 -2,0 -3,0 -3,2 0,1 0,1 1,2 0,0 1,0 1,0l1 0c1,1 1,1 2,1 0,0 0,0 0,1 0,1 -1,2 -2,2 -1,0 -2,-1 -2,-1l-1 0c1,1 2,1 3,1 2,0 3,-1 3,-2zm7 -6l0 0 -6 0 0 0 3 0 0 8 0 0 0 -8 3 0zm7 8l-3 -8 -1 0 -3 8 1 0 0 -2 4 0 1 2 1 0zm-2 -2l-3 0 1 -5 2 5zm9 2l0 -1 -5 0 0 -7 -1 0 0 8 6 0zm7 0l0 -1 -5 0 0 -7 -1 0 0 8 6 0zm7 0l-3 -8 0 0 -4 8 1 0 1 -2 4 0 0 2 1 0zm-1 -2l-4 0 2 -5 2 5zm7 -6l0 0 -6 0 0 0 3 0 0 8 1 0 0 -8 2 0zm3 8l0 -8 -1 0 0 8 1 0zm8 -4c0,-2 0,-3 -1,-4 0,0 -1,0 -2,0 -1,0 -2,0 -2,0 -1,1 -1,2 -1,4 0,2 0,3 1,3 0,1 1,1 2,1 1,0 2,0 2,-1 1,0 1,-1 1,-3zm-1 0c0,2 0,2 0,3 -1,0 -1,1 -2,1 -1,0 -1,-1 -1,-1 -1,-1 -1,-1 -1,-3 0,-2 0,-2 1,-3 0,0 0,-1 1,-1 1,0 1,1 2,1 0,1 0,1 0,3zm10 4l0 -8 -1 0 0 7 -5 -7 -1 0 0 8 1 0 0 -7 5 7 1 0zm18 0l-3 -5 3 -3 -1 0 -5 5 0 -5 0 0 0 8 0 0 0 -2 2 -2 3 4 1 0zm7 -3l0 -5 0 0 0 5c0,2 -1,3 -3,3 -1,0 -2,-1 -2,-3l0 -5 -1 0 0 5c0,2 2,3 3,3 2,0 3,-1 3,-3zm9 3l0 -8 -1 0 0 7 -4 -7 -1 0 0 8 1 0 0 -7 4 7 1 0zm9 -4c0,-1 0,-3 -1,-4 -1,0 -1,0 -2,0l-3 0 0 8 3 0c1,0 1,0 2,-1 1,0 1,-2 1,-3zm-1 0c0,1 0,2 -1,3 0,0 -1,0 -1,0l-2 0 0 -7 2 0c0,0 1,1 1,1 1,1 1,2 1,3zm8 4l0 -1 -4 0 0 -3 4 0 0 -1 -4 0 0 -3 4 0 0 0 -5 0 0 8 5 0zm9 0l0 -8 -1 0 0 7 -5 -7 -1 0 0 8 1 0 0 -7 5 7 1 0zm8 -4c0,-1 0,-3 0,-4 -1,0 -2,0 -3,0l-3 0 0 8 3 0c1,0 2,0 3,-1 0,0 0,-2 0,-3zm-1 0c0,1 1,2 0,3 -1,0 -1,0 -2,0l-2 0 0 -7 2 0c1,0 1,1 2,1 1,1 0,2 0,3zm5 4l0 -8 -1 0 0 8 1 0zm7 0l0 -1 -4 0 0 -3 4 0 0 -1 -4 0 0 -3 4 0 0 0 -5 0 0 8 5 0zm9 0l0 -8 -1 0 0 7 -5 -7 -1 0 0 8 1 0 0 -7 5 7 1 0zm8 -2c0,-1 -1,-1 -1,-2 0,0 -1,0 -2,0l-1 -1c0,0 -1,0 -1,0 0,0 0,-1 0,-1 0,-1 0,-2 2,-2 1,0 1,1 2,1l0 -1c0,0 -1,0 -2,0 -2,0 -3,0 -3,2 0,1 0,1 1,2 0,0 0,0 1,0l1 0c1,1 1,1 1,1 1,0 1,0 1,1 0,1 -1,2 -2,2 -1,0 -2,-1 -3,-1l0 0c0,1 1,1 3,1 1,0 3,-1 3,-2zm7 -6l0 0 -6 0 0 0 2 0 0 8 1 0 0 -8 3 0zm16 0l-1 0 -2 7 -3 -7 -1 0 3 8 1 0 3 -8zm7 4c0,-1 0,-3 -1,-4 0,0 -1,0 -2,0l-3 0 0 8 3 0c1,0 2,0 2,-1 1,0 1,-2 1,-3zm-1 0c0,1 0,2 0,3 -1,0 -1,0 -2,0l-2 0 0 -7 2 0c1,0 1,1 2,1 0,1 0,2 0,3zm9 4l0 -1 -5 0 0 -3 4 0 0 -1 -4 0 0 -3 5 0 0 0 -5 0 0 8 5 0zm11 -6c0,-1 -1,-2 -3,-2l-3 0 0 8 1 0 0 -3 2 0c2,0 3,-1 3,-3zm-1 0c0,1 -1,2 -2,2l-2 0 0 -4 2 0c1,0 2,1 2,2zm9 6l-2 -4c1,0 2,-1 2,-2 0,-2 -2,-2 -3,-2l-3 0 0 8 1 0 0 -4 2 0 2 4 1 0zm-1 -6c0,1 -1,2 -2,2l-2 0 0 -4 2 0c1,0 2,1 2,2zm9 3l0 -5 -1 0 0 5c0,2 -1,3 -2,3 -2,0 -3,-1 -3,-3l0 -5 0 0 0 5c0,2 1,3 3,3 1,0 3,-1 3,-3zm-2 -6l0 -1 -1 0 0 1 1 0zm-2 0l0 -1 -1 0 0 1 1 0zm11 1l0 0 -5 0 0 8 1 0 0 -4 4 0 0 0 -4 0 0 -4 4 0zm8 5l0 -5 -1 0 0 5c0,2 -1,3 -2,3 -1,0 -2,-1 -2,-3l0 -5 -1 0 0 5c0,2 1,3 3,3 2,0 3,-1 3,-3zm9 3l0 -8 -1 0 0 7 -5 -7 -1 0 0 8 1 0 0 -7 5 7 1 0zm8 -3l0 -1 -3 0 0 1 2 0 0 0c0,1 0,1 0,2 -1,0 -1,1 -2,1 0,0 -1,-1 -1,-1 -1,-1 -1,-1 -1,-3 0,-2 0,-2 1,-3 0,0 1,-1 1,-1 1,0 2,1 2,2l1 0c0,-1 -1,-2 -3,-2 -1,0 -1,0 -2,0 -1,1 -1,2 -1,4 0,2 0,3 1,3 1,1 1,1 2,1 1,0 2,0 2,-1 1,0 1,-1 1,-2zm8 3l0 -1 -5 0 0 -3 4 0 0 -1 -4 0 0 -3 5 0 0 0 -6 0 0 8 6 0zm8 0l0 -8 -1 0 0 7 -4 -7 -1 0 0 8 1 0 0 -7 4 7 1 0zm17 -2c0,-1 0,-1 0,-2 -1,0 -1,0 -2,0l-1 -1c0,0 -1,0 -1,0 0,0 -1,-1 -1,-1 0,-1 1,-2 2,-2 1,0 2,1 2,1l1 -1c-1,0 -2,0 -3,0 -1,0 -3,0 -3,2 0,1 1,1 1,2 1,0 1,0 2,0l1 0c0,1 1,1 1,1 0,0 0,0 0,1 0,1 0,2 -2,2 -1,0 -1,-1 -2,-1l-1 0c1,1 2,1 3,1 2,0 3,-1 3,-2zm7 -6l0 0 -6 0 0 0 3 0 0 8 1 0 0 -8 2 0zm7 8l0 -1 -4 0 0 -3 4 0 0 -1 -4 0 0 -3 4 0 0 0 -5 0 0 8 5 0zm8 -3l0 -5 -1 0 0 5c0,2 -1,3 -2,3 -1,0 -2,-1 -2,-3l0 -5 -1 0 0 5c0,2 1,3 3,3 2,0 3,-1 3,-3zm8 3l0 -1 -4 0 0 -3 3 0 0 -1 -3 0 0 -3 4 0 0 0 -5 0 0 8 5 0zm8 0l-2 -4c1,0 2,-1 2,-2 0,-2 -1,-2 -3,-2l-3 0 0 8 1 0 0 -4 2 0 2 4 1 0zm-1 -6c0,1 -1,2 -2,2l-2 0 0 -4 2 0c1,0 2,1 2,2zm9 3l0 -5 -1 0 0 5c0,2 -1,3 -2,3 -1,0 -2,-1 -2,-3l0 -5 -1 0 0 5c0,2 1,3 3,3 2,0 3,-1 3,-3zm9 3l0 -8 -1 0 0 7 -5 -7 -1 0 0 8 1 0 0 -7 5 7 1 0zm8 -3l0 -1 -3 0 0 1 2 0 0 0c0,1 0,1 0,2 -1,0 -1,1 -2,1 -1,0 -1,-1 -1,-1 -1,-1 -1,-1 -1,-3 0,-2 0,-2 1,-3 0,0 0,-1 1,-1 1,0 2,1 2,2l1 0c0,-1 -1,-2 -3,-2 -1,0 -2,0 -2,0 -1,1 -1,2 -1,4 0,2 0,3 1,3 0,1 1,1 2,1 1,0 2,0 2,-1 1,0 1,-1 1,-2zm8 1c0,-1 -1,-1 -1,-2 -1,0 -1,0 -2,0l-1 -1c0,0 -1,0 -1,0 0,0 0,-1 0,-1 0,-1 0,-2 2,-2 0,0 1,1 2,1l0 -1c-1,0 -1,0 -2,0 -2,0 -3,0 -3,2 0,1 0,1 0,2 1,0 1,0 2,0l1 0c1,1 1,1 1,1 0,0 1,0 1,1 0,1 -1,2 -2,2 -1,0 -2,-1 -3,-1l0 0c0,1 1,1 3,1 1,0 3,-1 3,-2zm7 -6l0 0 -6 0 0 0 2 0 0 8 1 0 0 -8 3 0zm7 8l0 -1 -5 0 0 -3 4 0 0 -1 -4 0 0 -3 5 0 0 0 -6 0 0 8 6 0zm7 -2l-1 0c0,1 -1,2 -2,2 0,0 -1,-1 -1,-1 -1,-1 -1,-1 -1,-3 0,-2 0,-2 1,-3 0,0 1,-1 1,-1 1,0 2,1 2,2l1 0c0,-2 -1,-2 -3,-2 -1,0 -1,0 -2,0 -1,1 -1,2 -1,4 0,2 0,3 1,3 1,1 1,1 2,1 2,0 3,-1 3,-2zm8 2l0 -8 -1 0 0 3 -4 0 0 -3 -1 0 0 8 1 0 0 -4 4 0 0 4 1 0zm9 0l0 -8 -1 0 0 7 -4 -7 -1 0 0 8 1 0 0 -7 4 7 1 0zm4 0l0 -8 -1 0 0 8 1 0zm9 0l-3 -5 2 -3 -1 0 -4 5 0 -5 -1 0 0 8 1 0 0 -2 2 -2 3 4 1 0z"/>
    <path class="fil3" d="M86 107l0 -12 1 0 0 12 -1 0zm101 0l0 -12 1 0 0 12 -1 0zm108 0l0 -12 1 0 0 12 -1 0z"/>
   </g>
  </g>
 </g>
</svg>
