<svg xmlns="http://www.w3.org/2000/svg" viewBox="0 0 600 740" role="img" aria-label="Milchig-weiße Nägel mit Blütenmotiv">
  <defs>
    <linearGradient id="b2" x1="0" y1="0" x2="1" y2="1"><stop offset="0" stop-color="#f4f6f2"/><stop offset="1" stop-color="#e6ebe2"/></linearGradient>
    <linearGradient id="n2" x1="0" y1="0" x2="0" y2="1"><stop offset="0" stop-color="#ffffff"/><stop offset="1" stop-color="#f0ece9"/></linearGradient>
  </defs>
  <rect width="600" height="740" fill="url(#b2)"/>
  <ellipse cx="300" cy="560" rx="190" ry="50" fill="#cdd4c8" opacity="0.4"/>
  <g transform="translate(300 470)">
    <g transform="rotate(-12) translate(-150 0)"><path d="M0 0 C 8 -148 62 -148 70 0 C 70 70 0 70 0 0 Z" fill="url(#n2)" stroke="#dcd6d0" stroke-width="2"/></g>
    <g transform="translate(-36 -20)">
      <path d="M0 0 C 9 -168 68 -168 77 0 C 77 76 0 76 0 0 Z" fill="url(#n2)" stroke="#dcd6d0" stroke-width="2"/>
      <!-- flower -->
      <g transform="translate(38 -86)" fill="#f4c6d8">
        <ellipse cx="0" cy="-14" rx="9" ry="15"/><ellipse cx="13" cy="-4" rx="9" ry="15" transform="rotate(72 13 -4)"/><ellipse cx="8" cy="12" rx="9" ry="15" transform="rotate(144 8 12)"/><ellipse cx="-8" cy="12" rx="9" ry="15" transform="rotate(216 -8 12)"/><ellipse cx="-13" cy="-4" rx="9" ry="15" transform="rotate(288 -13 -4)"/>
        <circle cx="0" cy="0" r="6" fill="#e9b44c"/>
      </g>
    </g>
    <g transform="rotate(12) translate(90 0)"><path d="M0 0 C 8 -148 62 -148 70 0 C 70 70 0 70 0 0 Z" fill="url(#n2)" stroke="#dcd6d0" stroke-width="2"/><path d="M20 -30 l30 0" stroke="#c0c0c8" stroke-width="3"/><path d="M20 -44 l30 0" stroke="#c0c0c8" stroke-width="3"/></g>
  </g>
  <g fill="#c9b48f"><path d="M470 180 l5 12 12 5 -12 5 -5 12 -5 -12 -12 -5 12 -5 z" opacity="0.6"/></g>
</svg>
