<svg xmlns="http://www.w3.org/2000/svg" viewBox="0 0 600 740" role="img" aria-label="Natürliche Nude-Nägel im Babyboomer-Stil">
  <defs>
    <linearGradient id="b3" x1="0" y1="0" x2="1" y2="1"><stop offset="0" stop-color="#f3ebe6"/><stop offset="1" stop-color="#e7d6cd"/></linearGradient>
    <linearGradient id="n3" x1="0" y1="0" x2="0" y2="1"><stop offset="0" stop-color="#fdf6f2"/><stop offset="0.65" stop-color="#f1ddd4"/><stop offset="1" stop-color="#e3c6bb"/></linearGradient>
  </defs>
  <rect width="600" height="740" fill="url(#b3)"/>
  <ellipse cx="300" cy="560" rx="190" ry="50" fill="#c8a99c" opacity="0.4"/>
  <g transform="translate(300 470)">
    <g transform="rotate(-12) translate(-150 0)"><path d="M0 0 C 8 -150 64 -150 72 0 C 72 70 0 70 0 0 Z" fill="url(#n3)" stroke="#d9b7ab" stroke-width="2"/></g>
    <g transform="translate(-36 -20)"><path d="M0 0 C 9 -170 70 -170 79 0 C 79 76 0 76 0 0 Z" fill="url(#n3)" stroke="#d9b7ab" stroke-width="2"/><path d="M30 -150 C 50 -120 50 -120 30 -150" fill="#fff" opacity="0.5"/></g>
    <g transform="rotate(12) translate(90 0)"><path d="M0 0 C 8 -150 64 -150 72 0 C 72 70 0 70 0 0 Z" fill="url(#n3)" stroke="#d9b7ab" stroke-width="2"/></g>
  </g>
  <g fill="#c4a26a"><circle cx="140" cy="180" r="4" opacity="0.5"/><path d="M460 200 l5 12 12 5 -12 5 -5 12 -5 -12 -12 -5 12 -5 z" opacity="0.6"/></g>
</svg>
