<svg xmlns="http://www.w3.org/2000/svg" viewBox="0 0 600 800" preserveAspectRatio="xMidYMid slice" role="img" aria-label="Beauty Werner Studio">
  <defs>
    <linearGradient id="abBg" x1="0" y1="0" x2="1" y2="1">
      <stop offset="0" stop-color="#efdfe6"/>
      <stop offset="1" stop-color="#b8789a"/>
    </linearGradient>
  </defs>
  <rect width="600" height="800" fill="url(#abBg)"/>
  <g opacity="0.9">
    <!-- stylised portrait silhouette -->
    <ellipse cx="300" cy="300" rx="130" ry="150" fill="#fff" opacity="0.85"/>
    <path d="M170 470 Q300 380 430 470 L430 640 Q300 700 170 640 Z" fill="#fff" opacity="0.8"/>
    <circle cx="300" cy="300" r="118" fill="#e9cdd9"/>
    <path d="M300 182 q-118 0 -118 118 q0 60 40 100 q-70 40 -70 130 l296 0 q0 -90 -70 -130 q40 -40 40 -100 q0 -118 -118 -118 Z" fill="#7d4863" opacity="0.28"/>
  </g>
  <g fill="none" stroke="#8a4d6b" stroke-width="2.5" stroke-linecap="round" opacity="0.5">
    <path d="M80 720 Q300 660 520 720"/>
    <path d="M110 760 Q300 710 490 760"/>
  </g>
</svg>
