<svg xmlns="http://www.w3.org/2000/svg" viewBox="0 0 600 600" preserveAspectRatio="xMidYMid slice" role="img" aria-label="Kosmetik Glow">
  <defs>
    <linearGradient id="skinBg" x1="0" y1="0" x2="1" y2="1"><stop offset="0" stop-color="#f4e6ec"/><stop offset="1" stop-color="#caa"/></linearGradient>
    <radialGradient id="skinGlow" cx="0.5" cy="0.45" r="0.5"><stop offset="0" stop-color="#fff" stop-opacity="0.85"/><stop offset="1" stop-color="#fff" stop-opacity="0"/></radialGradient>
  </defs>
  <rect width="600" height="600" fill="url(#skinBg)"/>
  <circle cx="300" cy="270" r="150" fill="#e9cdd9"/>
  <circle cx="300" cy="270" r="150" fill="url(#skinGlow)"/>
  <g fill="#fff" opacity="0.8">
    <path d="M300 150 l10 26 l26 10 l-26 10 l-10 26 l-10 -26 l-26 -10 l26 -10 Z"/>
    <path d="M400 330 l7 18 l18 7 l-18 7 l-7 18 l-7 -18 l-18 -7 l18 -7 Z"/>
    <path d="M210 350 l6 15 l15 6 l-15 6 l-6 15 l-6 -15 l-15 -6 l15 -6 Z"/>
  </g>
  <g fill="none" stroke="#8a4d6b" stroke-width="2.5" stroke-linecap="round" opacity="0.5">
    <path d="M110 500 Q300 450 490 500"/>
    <path d="M140 540 Q300 495 460 540"/>
  </g>
</svg>
